<?xml version="1.0" standalone="no"?><!DOCTYPE svg PUBLIC "-//W3C//DTD SVG 1.1//EN" "http://www.w3.org/Graphics/SVG/1.1/DTD/svg11.dtd"><svg t="1513232119618" class="icon" style="" viewBox="0 0 1024 1024" version="1.1" xmlns="http://www.w3.org/2000/svg" p-id="8719" xmlns:xlink="http://www.w3.org/1999/xlink" width="128" height="128"><defs><style type="text/css"></style></defs><path d="M345.34 811.5h61.399V467.667h-45.68c-1.966 10.484-6.14 19.325-12.526 26.524-6.385 7.207-14.084 13.102-23.086 17.683-9.01 4.59-19.08 7.86-30.208 9.824-11.135 1.965-22.594 2.947-34.383 2.947v44.207h84.484v242.646z m202.615-53.295c8.672 17.522 20.79 31.928 36.348 43.225 15.549 11.297 35.612 16.946 60.171 16.946s44.613-5.649 60.17-16.946c15.549-11.297 27.668-25.703 36.348-43.225 8.674-17.513 14.567-36.754 17.683-57.714 3.108-20.952 4.666-41.259 4.666-60.907s-1.557-39.947-4.666-60.907c-3.116-20.954-9.01-40.193-17.683-57.715-8.68-17.514-20.798-31.927-36.347-43.224-15.558-11.298-35.612-16.946-60.17-16.946s-44.622 5.648-60.172 16.946c-15.557 11.297-27.676 25.71-36.348 43.224-8.68 17.522-14.574 36.762-17.683 57.715-3.116 20.959-4.666 41.258-4.666 60.907s1.55 39.955 4.666 60.907c3.108 20.96 9.002 40.2 17.683 57.714z m36.592-169.46c1.965-15.879 5.318-29.877 10.07-41.996 4.744-12.11 11.128-21.689 19.157-28.734 8.02-7.038 18.25-10.56 30.7-10.56 12.11 0 22.263 3.522 30.453 10.56 8.181 7.045 14.65 16.624 19.402 28.734 4.743 12.12 8.104 26.117 10.069 41.997 1.965 15.887 2.947 32.833 2.947 50.838 0 18.013-0.982 35.043-2.947 51.083-1.965 16.049-5.326 30.047-10.07 41.997-4.75 11.957-11.22 21.451-19.401 28.489-8.19 7.045-18.343 10.56-30.454 10.56-12.448 0-22.68-3.516-30.7-10.56-8.028-7.038-14.412-16.532-19.156-28.49-4.752-11.95-8.105-25.947-10.07-41.996-1.964-16.04-2.947-33.07-2.947-51.083 0-18.005 0.983-34.95 2.947-50.838z m253.48-462.336H778.58V79.238c0-6.723-5.642-12.254-12.603-12.254h-34.219c-7.118 0-12.602 5.486-12.602 12.254v47.171H303.182V79.238c0-6.723-5.642-12.254-12.602-12.254h-34.22c-7.118 0-12.602 5.486-12.602 12.254v47.171h-59.446c-65.738 0-118.829 53.169-118.829 118.756v594.434c0 65.449 53.201 118.756 118.829 118.756h653.715c65.739 0 118.829-53.169 118.829-118.756V245.165c-0.001-65.449-53.203-118.756-118.83-118.756zM897.428 839.6c0 32.806-26.523 59.332-59.403 59.332H184.311c-32.757 0-59.403-26.652-59.403-59.332V364.108h772.521V839.6z m0-534.917H124.908v-59.518c0-32.806 26.523-59.332 59.403-59.332h59.446v47.172c0 6.723 5.642 12.254 12.602 12.254h34.22c7.118 0 12.602-5.486 12.602-12.254v-47.172h415.973v47.172c0 6.723 5.643 12.254 12.602 12.254h34.22c7.119 0 12.602-5.486 12.602-12.254v-47.172h59.446c32.757 0 59.403 26.652 59.403 59.332v59.518z" fill="#d81e06" p-id="8720"></path></svg>