<?xml version="1.0" standalone="no"?><!DOCTYPE svg PUBLIC "-//W3C//DTD SVG 1.1//EN" "http://www.w3.org/Graphics/SVG/1.1/DTD/svg11.dtd"><svg t="1513232805011" class="icon" style="" viewBox="0 0 1024 1024" version="1.1" xmlns="http://www.w3.org/2000/svg" p-id="25760" xmlns:xlink="http://www.w3.org/1999/xlink" width="128" height="128"><defs><style type="text/css"></style></defs><path d="M931.6 903.8h-28.2V568.1c0-31.6-25.3-56.1-56.5-56.1H736c-31.7 0-56.5 25.1-56.5 56.1v335.6h-56V120.6c0-31.2-25.3-56.4-56.5-56.4H456.1c-31.7 0-56.5 25.2-56.5 56.4v783.2h-56v-560c0-30.8-25.3-55.7-56.5-55.7H176.3c-31.7 0-56.5 25-56.5 55.7v559.9H91.6c-15.1 0-27.8 12.5-27.8 28 0 15 12.4 28 27.8 28h839.9c15.2 0 27.8-12.5 27.8-28 0-15-12.4-27.9-27.7-27.9" p-id="25761" fill="#d81e06"></path></svg>