<?xml version="1.0" standalone="no"?><!DOCTYPE svg PUBLIC "-//W3C//DTD SVG 1.1//EN" "http://www.w3.org/Graphics/SVG/1.1/DTD/svg11.dtd"><svg t="1513067860400" class="icon" style="" viewBox="0 0 1036 1024" version="1.1" xmlns="http://www.w3.org/2000/svg" p-id="5462" xmlns:xlink="http://www.w3.org/1999/xlink" width="129.5" height="128"><defs><style type="text/css"></style></defs><path d="M976.900286 975.386816c-32.510438 0-28.652574-30.78105-28.652574-63.291488 0-96.691179-62.159712-183.804213-154.676825-216.765929l-0.2415-0.088004c-48.483224-17.747199-61.064774-45.49517-63.080687-65.647139-3.158946-31.53932 0.415462-55.391565 55.549154-93.461625 58.414411-40.33566 75.191516-67.102281 75.191516-119.082142 0-79.759555-68.62496-190.041264-192.786795-192.770422-32.503275-0.714268-60.796668-7.248078-57.305147-39.568181 3.733021-34.556027 31.616068-30.223349 64.12753-30.223349 144.771221 0 257.81074 117.785613 257.230526 262.560928-0.38067 94.949512-76.006068 150.625556-130.340557 200.179159 44.002167 14.326287 117.122511 55.698556 148.379399 97.214089 48.219211 64.044642 69.220524 126.612653 69.220524 197.651592C1019.513826 945.157327 1009.961262 975.386816 976.900286 975.386816zM720.05043 975.386816c-32.506345 0-27.629267-38.096666-27.629267-70.608128 0-136.542816-118.703519-247.6401-315.178309-245.593488-193.396685 2.01489-308.015166 112.12059-308.015166 248.663406 0 33.060977-0.712221 63.206554-33.769105 63.206554-32.510438 0-35.458583-27.02654-35.458583-59.538001 0-135.907343 93.563956-228.812289 214.537168-287.12437-49.39192-49.078789-98.194416-136.910183-98.194416-207.342302 0-144.776338 117.78459-262.560928 262.561951-262.560928 144.777361 0 262.560928 117.78459 262.560928 262.560928 0 70.432119-47.042409 158.177556-96.430236 207.256344 120.973212 58.314127 212.774011 151.302985 212.774011 287.210327C757.807359 944.578136 753.110383 975.386816 720.05043 975.386816zM378.902656 216.120222c-110.789269 0-200.925149 90.13588-200.925149 200.930265 0 110.790292 90.13588 200.926172 200.925149 200.926172 110.793362 0 200.931289-90.13588 200.931289-200.926172C579.833945 306.256102 489.694995 216.120222 378.902656 216.120222z" p-id="5463" fill="#bfbfbf"></path></svg>